<?xml version="1.0" standalone="no"?>
<!DOCTYPE svg PUBLIC "-//W3C//DTD SVG 20010904//EN"
 "http://www.w3.org/TR/2001/REC-SVG-20010904/DTD/svg10.dtd">
<svg version="1.0" xmlns="http://www.w3.org/2000/svg"
 width="200.000000pt" height="200.000000pt" viewBox="0 0 200.000000 200.000000"
 preserveAspectRatio="xMidYMid meet">

<g transform="translate(0.000000,200.000000) scale(0.100000,-0.100000)"
fill="#000000" stroke="none">
<path d="M954 1716 c-71 -31 -87 -119 -34 -179 27 -32 30 -41 30 -106 l0 -71
-160 0 c-136 0 -167 -3 -214 -21 -76 -28 -147 -106 -171 -187 l-18 -59 -72 -6
c-90 -7 -146 -34 -182 -89 -26 -38 -28 -51 -31 -157 -4 -129 5 -174 45 -222
39 -46 96 -69 174 -69 l66 0 16 -58 c30 -108 113 -189 218 -211 66 -14 692
-14 758 0 105 22 188 103 218 211 l16 58 66 0 c78 0 135 23 174 69 40 48 49
93 45 222 -3 106 -5 119 -31 157 -36 55 -91 82 -183 89 -72 6 -73 6 -80 37
-12 56 -52 123 -99 164 -70 62 -112 72 -297 72 l-158 0 0 71 c0 65 3 74 30
106 54 61 36 149 -36 179 -41 17 -50 17 -90 0z m444 -475 c47 -24 77 -56 97
-103 12 -31 15 -87 15 -316 0 -187 -4 -290 -12 -313 -17 -50 -45 -83 -91 -110
l-42 -24 -366 0 -366 0 -48 30 c-87 54 -90 64 -93 400 -3 318 1 346 56 397 61
58 56 57 450 58 337 0 365 -1 400 -19z m-1038 -426 l0 -165 -51 0 c-43 0 -55
5 -80 29 -28 29 -29 32 -29 131 0 101 13 152 42 163 7 3 37 6 66 6 l52 1 0
-165z m1401 152 c31 -24 39 -56 39 -157 0 -99 -1 -102 -29 -131 -25 -24 -37
-29 -80 -29 l-51 0 0 165 0 165 53 0 c28 0 59 -6 68 -13z"/>
<path d="M714 1136 c-69 -30 -102 -128 -67 -195 25 -48 63 -73 120 -78 155
-13 212 199 73 269 -41 21 -83 22 -126 4z m124 -82 c27 -31 28 -63 2 -97 -39
-50 -110 -42 -134 15 -37 88 68 153 132 82z"/>
<path d="M1152 1130 c-154 -94 -36 -326 132 -256 78 33 108 144 57 215 -43 60
-128 78 -189 41z m107 -55 c32 -16 41 -33 41 -75 0 -72 -88 -102 -136 -46 -13
15 -24 37 -24 49 0 29 26 66 54 77 29 12 33 12 65 -5z"/>
<path d="M776 760 c-41 -13 -75 -48 -88 -92 -15 -52 10 -119 56 -148 31 -19
49 -20 256 -20 253 0 265 3 301 78 37 75 -1 160 -79 182 -44 12 -405 12 -446
0z m94 -130 l0 -70 -34 0 c-48 0 -86 33 -86 75 0 42 29 65 82 65 l38 0 0 -70z
m190 0 l0 -70 -60 0 -60 0 0 70 0 70 60 0 60 0 0 -70z m168 54 c54 -38 10
-124 -64 -124 l-34 0 0 70 0 70 38 0 c21 0 48 -7 60 -16z"/>
</g>
</svg>
